<svg xmlns="http://www.w3.org/2000/svg" viewBox="0 0 700 493.6" style="enable-background:new 0 0 700 493.6" xml:space="preserve"><path d="M470.5 8.9c-4.5-5.4-11-8.6-18-8.9-7-.3-13.8 2.3-18.7 7.3-4.9 4.9-7.6 11.7-7.3 18.7.3 7 3.6 13.5 8.9 18l178.7 178.9H23.6c-8.6.5-16.3 5.3-20.5 12.8-4.2 7.5-4.2 16.6 0 24.2 4.2 7.5 11.9 12.4 20.5 12.8h590.6l-179 178.7c-4.5 4.7-7 11-7 17.5s2.5 12.8 7 17.5c4.6 4.7 10.9 7.3 17.5 7.3s12.9-2.6 17.5-7.3L691.6 265c4.8-4.6 7.5-10.9 7.5-17.5s-2.7-12.9-7.5-17.5L470.5 8.9z"/></svg>