<svg width="51" height="132" fill="none" xmlns="http://www.w3.org/2000/svg"><path d="M46.493 10.583v116.814a2.722 2.722 0 0 1-2.727 2.716H6.836a2.722 2.722 0 0 1-2.726-2.716V10.583h42.383ZM2.235 8.697v118.7c0 2.528 2.064 4.603 4.62 4.603h36.93c2.537 0 4.62-2.056 4.62-4.603V8.697H2.236Z" fill="#000"/><path d="m21.627 34.014 2.197-10.225 2.897-.132 2.254 10.263-2.216.075-.378-2.226H23.9l-.436 2.226h-1.837v.019Zm2.633-3.886h1.723l-.947-4.962-.776 4.962ZM25.15 43.277h-.796v4.452l-2.026.17V37.542l2.462-.076c1.193 0 2.12.246 2.803.717.681.472 1.003 1.208 1.003 2.17 0 .641-.132 1.17-.378 1.584-.247.415-.625.755-1.099 1.038l.928 2.245.947 2.245-1.988.547-1.856-4.735Zm-.095-1.49c.473 0 .852-.095 1.136-.302.265-.189.417-.566.417-1.132 0-.85-.417-1.283-1.269-1.283h-.947v2.698h.663v.018ZM24.297 61.708V52.88h-2.12l.15-1.622h6.099l-.17 1.622h-1.932v8.66l-2.027.17ZM22.896 75.423V65.066h5.284l-.17 1.623H24.94v2.47h2.197l-.019 1.736h-2.178v2.906h3.352l-.17 1.622h-5.227ZM26.873 89.308l-3.03-6.47v6.3l-1.818.076V78.95l2.12-.075 2.69 6.15v-5.98l1.723-.17v10.262l-1.685.17ZM22.726 101.684c-.474-1.019-.72-2.32-.72-3.887 0-.867.114-1.716.34-2.528.228-.81.588-1.471 1.1-2 .51-.528 1.154-.792 1.93-.792.683 0 1.232.17 1.686.49.455.322.777.755 1.004 1.303.208.547.322 1.132.322 1.792l-1.932.132-.037-.283c-.057-.547-.152-.981-.285-1.302-.132-.32-.397-.49-.776-.49-.474 0-.814.377-1.023 1.15-.208.774-.303 1.66-.303 2.66 0 .717.02 1.321.076 1.811.038.491.17.925.36 1.302.19.377.492.566.909.566.34 0 .606-.207.814-.641.19-.415.303-.944.303-1.566h-1.022l.17-1.547h2.822v5.094l-.777.075-.473-1.924c-.076.358-.19.679-.303.962-.133.283-.341.547-.644.792s-.72.359-1.25.359c-1.08.019-1.818-.51-2.291-1.528ZM22.764 115.512c-.474-1-.72-2.321-.72-3.905 0-1.698.246-3.019.757-3.943.512-.925 1.326-1.377 2.462-1.377 2.16 0 3.22 1.754 3.22 5.263 0 1.566-.247 2.886-.72 3.924-.492 1.038-1.326 1.566-2.538 1.566-1.155-.019-1.97-.528-2.462-1.528Zm3.484-1.076c.152-.641.227-1.603.227-2.905 0-1.037-.075-1.905-.227-2.584-.151-.679-.473-1.038-.985-1.038-.511 0-.814.34-.966 1.019-.151.679-.227 1.547-.227 2.584 0 1.302.076 2.283.227 2.924.152.642.474.963.966.963.493 0 .815-.321.985-.963ZM0 0h51v5.358H0V0Z" fill="#000"/></svg>