<svg width="51" height="133" fill="none" xmlns="http://www.w3.org/2000/svg"><path d="M46.682 10.624v117.264a2.728 2.728 0 0 1-2.727 2.727H7.026a2.728 2.728 0 0 1-2.727-2.727V10.624h42.383ZM2.424 8.73v119.158a4.627 4.627 0 0 0 4.62 4.621h36.93a4.627 4.627 0 0 0 4.62-4.621V8.73H2.425ZM0 0h51v5.378H0V0Z" fill="#000"/><path d="M22.555 30.774h1.307c1.041 0 1.875.038 2.5.133s1.174.36 1.647.814c.474.455.72 1.174.72 2.178 0 .909-.208 1.59-.606 2.064s-.89.777-1.477.91c-.587.15-1.27.208-2.027.208v4.014l-2.045.17v-10.49h-.019Zm2.386 4.659c.53 0 .966-.114 1.27-.34.302-.228.473-.626.473-1.213 0-.587-.152-.985-.436-1.174-.284-.208-.739-.303-1.364-.303H24.6v3.03h.341ZM25.15 50.47h-.796v4.47l-2.026.17V44.712l2.462-.076c1.193 0 2.12.246 2.803.72.681.473 1.003 1.212 1.003 2.177 0 .644-.132 1.175-.378 1.591-.247.417-.625.758-1.099 1.042l.928 2.253.947 2.254-1.988.55-1.856-4.754Zm-.114-1.496c.473 0 .852-.095 1.136-.303.265-.19.417-.569.417-1.137 0-.852-.417-1.287-1.269-1.287h-.947v2.708h.663v.019ZM24.26 68.972V58.67l2.045-.17v10.302l-2.045.17ZM26.854 82.816l-3.03-6.496v6.325l-1.818.076V72.42l2.121-.076 2.69 6.174v-6.022l1.723-.17v10.301l-1.686.19ZM22.934 95.163c-.492-1.08-.72-2.405-.72-3.995 0-.853.114-1.667.341-2.463.227-.776.587-1.439 1.08-1.95.492-.511 1.117-.776 1.874-.776.587 0 1.099.189 1.534.549.436.36.777.833 1.004 1.401.227.568.36 1.174.36 1.818l-1.97.095c0-.417-.075-.89-.208-1.42-.133-.53-.416-.796-.833-.796-.436 0-.739.341-.91 1.042-.17.7-.245 1.515-.245 2.5 0 1.193.094 2.158.284 2.897.19.72.549 1.08 1.06 1.08.36 0 .625-.228.796-.663.151-.436.265-.966.303-1.591l1.723.17c0 .663-.114 1.288-.34 1.856-.228.568-.55 1.023-1.005 1.364-.435.34-.984.511-1.628.511-1.174 0-2.008-.55-2.5-1.629ZM22.896 110.446v-10.397h5.284l-.17 1.629H24.94v2.481h2.197l-.019 1.742h-2.178v2.917h3.352l-.17 1.628h-5.227Z" fill="#000"/></svg>