<svg width="51" height="133" fill="none" xmlns="http://www.w3.org/2000/svg"><path d="M46.682 10.624v117.264a2.728 2.728 0 0 1-2.727 2.727H7.026a2.728 2.728 0 0 1-2.727-2.727V10.624h42.383ZM2.424 8.73v119.158a4.627 4.627 0 0 0 4.62 4.621h36.93a4.627 4.627 0 0 0 4.62-4.621V8.73H2.425ZM0 0h51v5.378H0V0Z" fill="#000"/><path d="M25.169 24.449c1.25 0 2.177.246 2.746.738.568.493.852 1.137.852 1.932 0 .512-.095.947-.303 1.345a1.91 1.91 0 0 1-.833.852c.435.227.795.53 1.06.928.265.379.379.947.379 1.704 0 1.932-1.534 2.917-4.583 2.917H22.82V24.449h2.349Zm.132 4.223c.53 0 .928-.095 1.193-.265s.398-.53.398-1.08c0-.473-.152-.814-.455-.984-.303-.19-.7-.265-1.23-.265h-.398v2.613h.492v-.019Zm-.038 4.545c.663 0 1.137-.17 1.44-.492.303-.322.435-.682.435-1.08 0-.606-.151-1.003-.473-1.193-.322-.19-.758-.303-1.345-.303h-.436v3.068h.38ZM22.044 48.709l2.197-10.265 2.897-.133 2.254 10.303-2.216.076-.379-2.235h-2.48l-.436 2.235h-1.837v.019Zm2.632-3.902H26.4l-.947-4.98-.777 4.98ZM25.169 52.174c1.25 0 2.177.246 2.746.739.568.492.852 1.136.852 1.931 0 .512-.095.947-.303 1.345a1.91 1.91 0 0 1-.833.852c.435.228.795.53 1.06.928.265.379.379.947.379 1.705 0 1.931-1.534 2.916-4.583 2.916H22.82V52.174h2.349Zm.132 4.223c.53 0 .928-.094 1.193-.265.265-.17.398-.53.398-1.08 0-.473-.152-.814-.455-.984-.303-.19-.7-.265-1.23-.265h-.398v2.613h.492v-.019Zm-.038 4.545c.663 0 1.137-.17 1.44-.492.303-.322.435-.682.435-1.08 0-.605-.151-1.003-.473-1.192-.322-.19-.758-.303-1.345-.303h-.436v3.067h.38ZM23.18 75.09c-.473-1.005-.72-2.33-.72-3.921 0-1.704.247-3.03.758-3.958.511-.928 1.326-1.383 2.462-1.383 2.159 0 3.22 1.762 3.22 5.284 0 1.572-.247 2.898-.72 3.94-.493 1.04-1.326 1.571-2.538 1.571-1.155-.019-1.988-.53-2.462-1.534Zm3.485-1.08c.151-.644.227-1.61.227-2.917 0-1.041-.076-1.913-.227-2.594-.152-.682-.474-1.042-.985-1.042s-.814.341-.966 1.023c-.151.681-.227 1.553-.227 2.594 0 1.307.076 2.292.227 2.936.152.643.474.965.966.965s.814-.322.985-.965ZM23.407 90.277V80.051l2.027-.17v8.768h3.409l-.209 1.628h-5.227ZM22.044 104.121l2.197-10.264 2.897-.133 2.254 10.302-2.216.076-.379-2.235h-2.48l-.436 2.235h-1.837v.019Zm2.632-3.882H26.4l-.947-4.98-.777 4.98ZM24.695 118.059v-8.863h-2.12l.15-1.628h6.099l-.17 1.628H26.72v8.693l-2.026.17Z" fill="#000"/></svg>