<svg xmlns="http://www.w3.org/2000/svg" viewBox="0 0 700 669.2" style="enable-background:new 0 0 700 669.2" xml:space="preserve"><path d="M408.6 420.4c0-12.5-10.3-22.1-22.1-22.1H151.7c-12.5 0-22.1 10.3-22.1 22.1 0 12.5 10.3 22.1 22.1 22.1h234.9c11.7 0 22-9.6 22-22.1zM151.7 329.8h234.9c12.5 0 22.1-10.3 22.1-22.1 0-12.5-10.3-22.1-22.1-22.1H151.7c-12.5 0-22.1 10.3-22.1 22.1s10.3 22.1 22.1 22.1zM129.6 533.8c0 12.5 10.3 22.1 22.1 22.1h191.4l10.3-44.9H151.7c-12.6-.1-22.1 10.2-22.1 22.8zM395.3 580.1l56.7-12.5c2.2-.7 4.4-2.2 6.6-3.7l16.2-16.2-62.6-62.6-16.2 16.2c-2.2 2.2-3.7 4.4-3.7 6.6l-13.2 56.7c-2.2 8.9 6.7 17.7 16.2 15.5z"/><path d="M493.3 610.3c0 7.4-5.9 14-14 14H58.2c-8.1 0-14-6.6-14-14V58.1c0-7.4 5.9-14 14-14h263.6v114.1c0 32.4 25.8 58.2 58.2 58.2h113.4v134l44.9-44.9v-96.4c0-15.5-6.6-30.2-17.7-41.2l-150.3-151C359.3 5.9 344.5 0 329.1 0H58.2C25.8 0 0 26.5 0 58.2v552.9c0 31.7 25.8 58.2 58.2 58.2h421.1c32.4 0 58.9-26.5 58.9-58.2v-74.4l-44.9 44.9v28.7zM366.6 75.8l95.7 95.7h-82.5c-8.1 0-14-5.9-14-14V75.8h.8z"/><path d="m435.8 461.6 62.6 62.6 145-145-62.6-63.3-145 145.7zM695.7 307.7l-44.2-44.2c-5.2-5.2-13.2-5.2-18.4 0l-28 28 62.6 62.6 28-27.2c5.2-5.2 5.2-14 0-19.2z"/></svg>