<svg width="51" height="133" fill="none" xmlns="http://www.w3.org/2000/svg"><path d="M46.682 10.624v117.264a2.728 2.728 0 0 1-2.727 2.727H7.026a2.728 2.728 0 0 1-2.727-2.727V10.624h42.383ZM2.424 8.73v119.158a4.627 4.627 0 0 0 4.62 4.621h36.93a4.627 4.627 0 0 0 4.62-4.621V8.73H2.425ZM0 0h51v5.378H0V0Z" fill="#000"/><path d="M22.48 55.11V44.806l2.045-.17v4.204h1.931v-4.053l2.046-.17V54.92l-2.046.17v-4.412h-1.931v4.242l-2.046.19ZM23.123 68.877V58.481h5.284l-.17 1.628h-3.068v2.481h2.196l-.018 1.742h-2.178v2.917h3.352l-.17 1.629h-5.228ZM21.835 82.74l2.197-10.264 2.898-.133 2.253 10.302-2.215.076-.38-2.235h-2.48l-.436 2.235h-1.837v.02Zm2.633-3.901h1.723l-.947-4.98-.776 4.98ZM22.63 86.206h2.14c1.364 0 2.387.435 3.069 1.306.682.872 1.004 2.178 1.004 3.94a8.42 8.42 0 0 1-.38 2.556 4.04 4.04 0 0 1-1.211 1.875c-.55.474-1.27.72-2.121.72h-2.5V86.206Zm2.311 8.768c.701 0 1.193-.303 1.459-.909.265-.606.416-1.345.416-2.235v-.473c0-.644-.038-1.212-.113-1.705a2.728 2.728 0 0 0-.55-1.287c-.284-.36-.7-.55-1.268-.55h-.228v7.159h.284Z" fill="#000"/></svg>