<svg version="1.1" id="Calque_1" xmlns="http://www.w3.org/2000/svg" x="0" y="0" viewBox="0 0 32 32" style="enable-background:new 0 0 32 32" xml:space="preserve"><style>.st1{fill:#fff}</style><path style="fill:#006039" d="M0 0h32v32H0z"/><path class="st1" d="M5.7 25.1V9.8H2.1L2.3 7h10.5l-.3 2.8H9.2v15l-3.5.3zM20.4 22.5c-.8-1.9-1.3-4.2-1.3-6.9 0-1.5.2-2.9.6-4.2.4-1.4 1-2.5 1.9-3.4.9-.9 1.9-1.3 3.2-1.3 1 0 1.9.3 2.6.9.8.6 1.3 1.4 1.7 2.4s.6 2 .6 3.1l-3.4.2c0-.7-.1-1.5-.4-2.4-.2-.9-.7-1.4-1.4-1.4s-1.3.6-1.6 1.8c-.3 1.2-.4 2.6-.4 4.3 0 2.1.2 3.7.5 5 .3 1.2.9 1.9 1.8 1.9.6 0 1.1-.4 1.4-1.1s.4-1.7.5-2.8l3 .3c0 1.1-.2 2.2-.6 3.2-.4 1-1 1.8-1.7 2.4-.8.6-1.7.9-2.8.9-2-.1-3.4-1-4.2-2.9zM15 2h1.2v28H15z"/></svg>