<?xml version="1.0" encoding="utf-8"?>
<!-- Generator: Adobe Illustrator 26.3.1, SVG Export Plug-In . SVG Version: 6.00 Build 0)  -->
<svg version="1.1" xmlns="http://www.w3.org/2000/svg" xmlns:xlink="http://www.w3.org/1999/xlink" x="0px" y="0px"
	 viewBox="0 0 400 175" style="enable-background:new 0 0 400 175;" xml:space="preserve">
<style type="text/css">
	.st0{fill:none;stroke:#000000;stroke-width:3;stroke-miterlimit:10;}
	.st1{fill:#FFFFFF;stroke:#000000;stroke-width:5;stroke-miterlimit:10;}
	.st2{fill:none;stroke:#000000;stroke-width:10;stroke-miterlimit:10;}
	.st3{fill:none;stroke:#000000;stroke-width:5;stroke-miterlimit:10;}
	.st4{fill:none;}
	.st5{fill:#FFFFFF;}
	.st6{fill:url(#SVGID_1_);}
	.st7{fill:#006039;}
	.st8{fill:url(#SVGID_00000033367651620256572200000000981945091737187978_);}
	.st9{fill:url(#SVGID_00000177463279167857119570000014997228092140779699_);}
	.st10{fill:url(#SVGID_00000153690828286948339660000002483096980385442976_);}
	.st11{fill:url(#SVGID_00000140714741849164633970000017194286538404676798_);}
	.st12{fill:url(#SVGID_00000152984674547478380070000004500728509621929362_);}
	.st13{fill:url(#SVGID_00000113354835447330025920000015433418189338859190_);}
	.st14{fill:url(#SVGID_00000163757395100439208020000011243880338162389911_);}
	.st15{fill:#FFFFFF;stroke:#000000;stroke-width:10;stroke-miterlimit:10;}
	.st16{display:none;fill:none;stroke:#000000;stroke-width:10;stroke-miterlimit:10;}
	.st17{fill:url(#SVGID_00000116948843174339136780000017077399768334092965_);}
	.st18{fill:url(#SVGID_00000180330331933375582190000012285064848764742045_);}
</style>
<g id="Calque_1">
</g>
<g id="Calque_3">
</g>
<g id="Calque_2">
	
		<linearGradient id="SVGID_1_" gradientUnits="userSpaceOnUse" x1="27.8432" y1="508.1934" x2="94.8268" y2="392.3874" gradientTransform="matrix(0.8645 -0.5027 0.5027 0.8645 -79.1001 -303.108)">
		<stop  offset="0" style="stop-color:#FFFFFF"/>
		<stop  offset="0.341" style="stop-color:#000000"/>
	</linearGradient>
	<path class="st6" d="M125,124.9L125,124.9c0-1.3,0-2.6,0.1-3.9l10.5-0.1l0,6.4h2.5l0-6.5l18-0.2l0,6.7h2.5l0-6.7l19.2-0.2l0,6.9
		h2.5l0-6.9l19-0.2l0,7.1h2.5l0-7.1l18.8-0.2l0,7.3h2.5l0-7.3l19.3-0.2l0,7.5h2.5l0-7.5l18.2-0.2l0,7.7h2.5l0-7.7l9.2-0.1
		c0.1,1.3,0.1,2.6,0.1,3.9c0,1.3,0,2.7-0.1,4h33.4l0-12.5l-24.6-12.3c-2.1-10.2-5.6-19.9-10.4-28.5l9.7-29l-10.4-12l-26,10.4
		c-8.3-5.9-17.5-10.3-27.4-12.7l-11.6-27l-14.9,0.1l-11.4,27.2c-10.2,2.7-19.6,7.4-28,13.8l-26.2-10.2l-10.3,12.2L126.5,76
		c-4.6,8.7-8,18.2-9.9,28.4L93,117l0,10.3h32.1C125.1,126.6,125,125.7,125,124.9z M274.3,117.1l-9,0.1l-0.1-18.8l5.9-0.1
		C272.8,104.3,273.9,110.6,274.3,117.1z M270.4,95.8l-5.2,0.1l0-13.4C267.2,86.7,269,91.2,270.4,95.8z M262.8,117.2l-18.2,0.2
		l-0.1-18.8l18.2-0.2L262.8,117.2z M262.7,77.8l0.1,18.1l-18.2,0.2l-0.1-18.4l18.1-0.2C262.6,77.6,262.6,77.7,262.7,77.8z M247,57.9
		c5.4,4.9,10.1,10.7,14.1,17.2l-16.6,0.2l-0.1-17.3L247,57.9z M242.1,117.4l-19.3,0.2l-0.1-18.8l19.3-0.2L242.1,117.4z M242.1,96.1
		l-19.3,0.2l-0.1-18.4l19.3-0.2L242.1,96.1z M242,75.3l-19.3,0.2l-0.1-17.3l19.3-0.2L242,75.3z M241.9,53.6l0,1.9l-19.3,0.2l0-12.7
		C229.5,45.4,236,49.1,241.9,53.6z M220.3,117.6l-18.8,0.2L201.4,99l18.8-0.2L220.3,117.6z M220.3,96.3l-18.8,0.2l-0.1-18.4
		l18.9-0.2L220.3,96.3z M220.2,75.5l-18.9,0.2l-0.1-17.3l18.9-0.2L220.2,75.5z M220.1,42.1l0,13.6l-18.9,0.2l-0.1-16.8
		C207.7,39.2,214.1,40.2,220.1,42.1z M199.1,117.8l-19,0.2L180,99.2L199,99L199.1,117.8z M199,96.6L180,96.7L180,78.4l18.9-0.2
		L199,96.6z M198.9,75.7L180,75.9l-0.1-17.3l18.9-0.2L198.9,75.7z M198.7,39.1l0.1,16.8l-18.9,0.2l0-13.9
		C185.9,40.3,192.2,39.2,198.7,39.1z M177.6,118l-19.2,0.2l-0.1-18.8l19.2-0.2L177.6,118z M177.6,96.8L158.3,97l-0.1-18.4l19.3-0.2
		L177.6,96.8z M177.5,75.9l-19.3,0.2l-0.1-17.3l19.4-0.2L177.5,75.9z M177.4,43.1l0,13.1L158,56.3l0-2.5
		C163.9,49.2,170.4,45.6,177.4,43.1z M156,118.3l-18,0.2L138,99.6l17.9-0.2L156,118.3z M155.6,55.8l0,0.6l-0.7,0
		C155.1,56.2,155.3,56,155.6,55.8z M152.1,58.9l3.5,0l0.1,17.3l-17.5,0.2C142.1,69.8,146.8,63.9,152.1,58.9z M155.7,78.6l0.1,18.4
		L138,97.2l-0.1-18.4L155.7,78.6z M135.4,81.2l0.1,16l-6.5,0.1C130.6,91.6,132.8,86.3,135.4,81.2z M128.3,99.7l7.2-0.1l0.1,18.8
		l-10.3,0.1C125.6,112.1,126.7,105.8,128.3,99.7z"/>
	<g>
		<path d="M8.6,173v-42.5H-1.6l0.7-7.8h29.3l-0.8,7.8h-9.3v41.7L8.6,173z"/>
		<path d="M35,168.2c-2.3-3.5-3.5-8.2-3.5-14.1c0-5.9,1.2-10.7,3.6-14.2c2.4-3.5,5.9-5.3,10.4-5.3c4.3,0,7.7,1.8,10,5.3
			c2.3,3.5,3.5,8.2,3.5,14.2c0,0.4-0.1,0.6-0.2,0.8c-0.1,0.2-0.2,0.3-0.2,0.3H40.8c0,2.9,0.4,5.5,1.1,7.9c0.8,2.4,1.9,3.6,3.5,3.6
			c1.7,0,3-1,3.9-3c0.8-2,1.3-3,1.3-3.1l7.1,2.7c-0.9,3.2-2.4,5.7-4.5,7.6c-2,1.8-4.7,2.8-8,2.8C40.8,173.5,37.4,171.8,35,168.2z
			 M49.8,149.8c0-2.7-0.4-4.8-1.1-6.3c-0.7-1.6-1.8-2.3-3.3-2.3c-0.8,0-1.5,0.4-2.2,1.1c-0.7,0.8-1.3,1.8-1.7,3.1
			c-0.4,1.3-0.7,2.8-0.7,4.4H49.8z"/>
		<path d="M64.6,136l9.3-0.8v4.8c1.9-1.7,3.8-3,5.6-3.9c1.8-0.9,3.5-1.4,5.1-1.4c2.3,0,4.3,0.9,5.8,2.6c1.5,1.7,2.2,4,2.2,6.9v28.1
			l-9.3,0.8v-25.3c0-3.3-1.1-5-3.4-5c-0.8,0-1.6,0.2-2.5,0.7c-0.9,0.4-2.1,1.1-3.5,1.9v26.9l-9.3,0.8V136z"/>
		<path d="M100.5,136l9.3-0.8v4.8c1.9-1.7,3.8-3,5.6-3.9c1.8-0.9,3.5-1.4,5.1-1.4c2.3,0,4.3,0.9,5.8,2.6c1.5,1.7,2.2,4,2.2,6.9v28.1
			l-9.3,0.8v-25.3c0-3.3-1.1-5-3.4-5c-0.8,0-1.6,0.2-2.5,0.7c-0.9,0.4-2.1,1.1-3.5,1.9v26.9l-9.3,0.8V136z"/>
		<path d="M136.3,173V136l9.3-0.8v37.1L136.3,173z M136.4,130.4v-9.6l9.3-0.7v9.9L136.4,130.4z"/>
		<path d="M156.1,171c-2.3-1.7-3.7-4-4.4-7l7.3-2.4c0.2,0.8,0.5,1.6,1,2.3c1,1.5,2.5,2.2,4.5,2.2c1.1,0,2.2-0.2,3.2-0.7
			c1-0.5,1.5-1.2,1.5-2.3c0-1.4-1-2.4-2.9-3.2l-7.8-3.2c-2.1-0.9-3.7-2.2-4.8-4c-1.1-1.8-1.7-3.9-1.7-6.5c0-2.4,0.6-4.5,1.8-6.2
			c1.2-1.7,2.7-3.1,4.7-4c1.9-0.9,4-1.4,6.2-1.4c2.8,0,5.4,0.8,7.7,2.4c2.3,1.6,3.9,3.8,4.7,6.6l-7.7,2.4c-0.2-0.8-0.5-1.5-0.9-2.3
			c-1-1.5-2.2-2.3-3.7-2.3c-1.1,0-2.1,0.3-2.9,0.8c-0.8,0.5-1.2,1.3-1.2,2.2c0,1.2,1.1,2.2,3.3,3.2l6.7,2.7c2.3,1.1,4.2,2.5,5.5,4.2
			c1.3,1.7,2,3.9,2,6.8c0,2.6-0.6,4.8-1.9,6.6c-1.2,1.8-2.9,3.1-4.9,4.1c-2,0.9-4.1,1.4-6.3,1.4C161.3,173.5,158.3,172.7,156.1,171z
			"/>
		<path d="M202.2,165.8c-2.3-5.2-3.5-11.6-3.5-19.2c0-4.1,0.5-8,1.6-11.8c1.1-3.8,2.8-6.9,5.2-9.3c2.4-2.5,5.4-3.7,9-3.7
			c2.8,0,5.2,0.9,7.4,2.6c2.1,1.7,3.7,4,4.9,6.8c1.1,2.8,1.7,5.7,1.7,8.7l-9.4,0.5c0-2-0.3-4.3-1-6.8c-0.7-2.5-2-3.8-4-3.8
			c-2.1,0-3.5,1.7-4.3,5c-0.8,3.3-1.2,7.3-1.2,12c0,5.8,0.4,10.4,1.3,13.9c0.9,3.5,2.6,5.2,5.1,5.2c1.8,0,3-1.1,3.8-3.2
			c0.8-2.1,1.2-4.7,1.5-7.7l8.3,0.8c0,3.2-0.5,6.2-1.6,8.9c-1.1,2.7-2.7,4.9-4.8,6.6c-2.1,1.6-4.7,2.5-7.8,2.5
			C208.5,173.6,204.5,171,202.2,165.8z"/>
		<path d="M236.8,171c-1.5-1.7-2.3-4-2.3-6.9V136l9.3-0.8v25.1c0,1.8,0.3,3.1,0.9,3.8c0.6,0.8,1.5,1.2,2.7,1.2c0.9,0,1.9-0.2,3-0.7
			c1.1-0.5,2-1.2,2.9-2.2V136l9.4-0.8v37.1l-9.4,0.8v-4.8c-1.6,1.8-3.2,3.1-5.1,4c-1.8,0.9-3.6,1.3-5.3,1.3
			C240.4,173.5,238.4,172.7,236.8,171z"/>
		<path d="M272.9,171c-2.3-1.7-3.7-4-4.4-7l7.3-2.4c0.2,0.8,0.5,1.6,1,2.3c1,1.5,2.5,2.2,4.5,2.2c1.1,0,2.2-0.2,3.2-0.7
			c1-0.5,1.5-1.2,1.5-2.3c0-1.4-1-2.4-2.9-3.2l-7.8-3.2c-2.1-0.9-3.7-2.2-4.8-4c-1.1-1.8-1.7-3.9-1.7-6.5c0-2.4,0.6-4.5,1.8-6.2
			s2.7-3.1,4.7-4c1.9-0.9,4-1.4,6.2-1.4c2.8,0,5.4,0.8,7.7,2.4c2.3,1.6,3.9,3.8,4.7,6.6l-7.7,2.4c-0.2-0.8-0.5-1.5-0.9-2.3
			c-1-1.5-2.2-2.3-3.7-2.3c-1.1,0-2.1,0.3-2.9,0.8c-0.8,0.5-1.2,1.3-1.2,2.2c0,1.2,1.1,2.2,3.3,3.2l6.7,2.7c2.3,1.1,4.2,2.5,5.5,4.2
			c1.3,1.7,2,3.9,2,6.8c0,2.6-0.6,4.8-1.9,6.6c-1.2,1.8-2.9,3.1-4.9,4.1c-2,0.9-4.1,1.4-6.3,1.4C278.1,173.5,275.2,172.7,272.9,171z
			"/>
		<path d="M305.8,171.1c-2.1-1.5-3.1-4.2-3.1-8.1v-20.7h-5.2l0.4-7.1h5.1l0.9-8.1l8.1-1.1v9.2h7.7l-0.4,7.1H312v20.6
			c0,1.3,0.3,2.3,1,2.9c0.7,0.6,1.6,0.9,2.9,0.9c0.7,0,1.9-0.1,3.6-0.4v6.5c-0.2,0-0.9,0.2-2.1,0.4c-1.2,0.2-2.6,0.3-4,0.3
			C310.4,173.4,307.8,172.6,305.8,171.1z"/>
		<path d="M326.4,168.2c-2.4-3.5-3.6-8.3-3.6-14.2c0-5.9,1.2-10.5,3.6-14c2.4-3.5,5.9-5.3,10.4-5.3c4.5,0,8,1.8,10.4,5.3
			c2.5,3.5,3.7,8.2,3.7,14c0,5.9-1.2,10.6-3.7,14.1c-2.5,3.6-5.9,5.4-10.4,5.4C332.3,173.5,328.8,171.7,326.4,168.2z M340.6,162.9
			c0.6-2.4,0.9-5.4,0.9-9c0-3.5-0.3-6.5-0.9-9c-0.6-2.4-1.9-3.7-3.9-3.7c-2,0-3.3,1.2-3.8,3.5s-0.8,5.1-0.8,8.4
			c0,4.1,0.3,7.3,0.8,9.7s1.8,3.6,3.8,3.6C338.8,166.6,340,165.4,340.6,162.9z"/>
		<path d="M357.2,136l9.1-0.8v4.8c1.4-1.6,3-2.9,4.8-3.8c1.8-1,3.6-1.4,5.4-1.4c2.8,0,4.6,2,5.5,5.9c2.9-3.9,6.2-5.9,9.8-5.9
			c2.4,0,4.1,1,5.1,2.9c1,1.9,1.5,4.7,1.5,8.5v26.1l-9.2,0.8v-26.5c0-1.2-0.2-2.1-0.7-2.8c-0.4-0.7-1-1-1.5-1
			c-0.9,0-1.8,0.3-2.6,0.8c-0.8,0.5-1.5,1.1-2.1,1.9v26.9l-9.1,0.8v-26.5c0-1.2-0.2-2.2-0.6-2.8c-0.4-0.6-0.8-1-1.3-1
			c-0.9,0-1.8,0.3-2.7,0.8c-0.9,0.5-1.7,1.2-2.3,1.9v26.9l-9.1,0.8V136z"/>
	</g>
</g>
</svg>
