<svg version="1.1" id="Calque_1" xmlns="http://www.w3.org/2000/svg" x="0" y="0" viewBox="0 0 301.7 105.1" style="enable-background:new 0 0 301.7 105.1" xml:space="preserve"><style>.st0{fill:#fff}</style><path class="st0" d="M0 0h23.3c6.2 0 11.9.8 17 2.5s9.4 4.2 13 7.7c3.6 3.5 6.4 7.9 8.4 13.2 2 5.4 3 11.7 3 19.1s-1 13.8-3 19.2-4.7 9.9-8.3 13.5-7.8 6.2-12.7 8-10.4 2.6-16.3 2.6H0V0zm22.2 70.1c3.3 0 6.4-.5 9.1-1.4 2.8-1 5.1-2.5 7.1-4.7 2-2.1 3.5-5 4.6-8.5s1.6-7.9 1.6-13-.5-9.4-1.6-12.8c-1.1-3.5-2.6-6.2-4.6-8.3s-4.3-3.5-7.1-4.4-5.8-1.3-9.1-1.3h-2.8v54.5l2.8-.1zM70.9 0h19.7l2.8 45.7c.1 3.7.2 7.3.3 10.9.1 3.6.2 7.2.3 10.9h.4c.7-3.7 1.5-7.3 2.3-10.9.8-3.6 1.6-7.2 2.3-10.9l5.9-23.8h11.7l5.7 23.8c.7 3.5 1.4 7.1 2.2 10.8.8 3.7 1.5 7.4 2.2 11.1h.5c.2-3.7.3-7.3.3-11 0-3.6.2-7.3.3-10.9L130.4 0h18.4l-10.7 85.8h-20.3l-5.4-27c-.5-2.7-1-5.5-1.4-8.4-.4-2.8-.7-5.5-.9-8.1h-.4c-.3 2.5-.6 5.2-1 8.1-.4 2.9-.9 5.6-1.4 8.4l-5.1 27H82.4L70.9 0zM179.1 16.3h-25.7V0h70.8v16.3h-25.7v69.5H179l.1-69.5z"/><path style="fill:#fcdc02" d="M243.2 85.8h58.5v19.3h-58.5z"/></svg>