<svg xmlns="http://www.w3.org/2000/svg" viewBox="0 0 100 100" style="enable-background:new 0 0 100 100" xml:space="preserve"><path d="m50 30.9 3.4 7.3c1.7.2 3.4.7 5.1 1.3-2.3-6.3-3.9-12.9-4.7-19.6-.2.1-.4.1-.6.1h-6.4c-.2 0-.4 0-.6-.1-.8 6.7-2.4 13.3-4.7 19.6 1.7-.6 3.4-1 5.1-1.2l3.4-7.4z"/><path d="M50 39c-14.9 0-27 13.7-27 30.5-.1 8.5 3.2 16.7 9.1 22.8 4.7 4.8 11.2 7.6 17.9 7.7 7.3-.1 14.3-3.3 19.1-8.9 5.2-6 8-13.7 7.9-21.6C77 52.6 64.9 39 50 39zm21.5 21.2c1 2.8 1.5 5.8 1.5 8.7h-7.9v-8.7h6.3c0 .1 0 .1.1 0zm-16.1.1 8.6.1.1 8.6h-8.7v-8.7zm-1.1 18.3h-8.7v-8.7h8.7v8.7zm0-9.6h-8.7v-8.7h8.7V69zm-8.6-9.7v-8.7l8.6.1.1 8.6h-8.7zm-1.1 0h-8.7v-8.7h8.7v8.7zm.1 1V69H36v-8.7h8.7zm0 9.7v8.7H36V70h8.7zm0 9.6V87H36v-7.4h8.7zm1 0h8.7V87h-8.7v-7.4zm9.6.1H64v7.4h-8.7v-7.4zm0-1.1v-8.7H64v8.7h-8.7zm9.9-28c.1 0 .3-.1.4-.2 2.4 2.5 4.3 5.5 5.5 8.8H65v-8.7l.2.1zM64 59.3h-8.7v-8.7H64v8.7zm.2-10.2c-.1.1-.1.2-.1.3v.2h-8.7v-5.3c3.2.9 6.2 2.5 8.8 4.8zM50 43.6c1.5 0 2.9.2 4.4.5v5.5h-8.7v-5.5c1.4-.3 2.8-.5 4.3-.5zm-5.3.7v5.2H36v-.2c0-.1 0-.2-.1-.3 2.5-2.2 5.5-3.8 8.8-4.7zm-10.3 6.1c.1.1.2.2.4.1h.2v8.7h-6.1c1.2-3.2 3.1-6.2 5.5-8.8zm-5.9 9.8H35v8.7l-8 .1c.1-3 .6-5.9 1.5-8.8zm0 18.5C27.5 75.9 27 73 27 70h7.9v8.7h-6.4zm5.1 8.4c-.1 0-.2 0-.3.1-1.9-2.2-3.4-4.8-4.4-7.5H35V87l-1.4.1zm.5 1h.9v.9l-.9-.9zm1.7 1.7c.1-.1.1-.2.1-.3v-1.4l8.7.1v6.5c-3.2-1-6.2-2.7-8.8-4.9zM50 95.3c-1.5 0-2.9-.2-4.4-.5 0 0 .1-.1 0-.1v-6.6h8.7v6.7c-1.4.3-2.8.5-4.3.5zm5.4-.8V88h8.7v1.4c0 .1 0 .2.1.3-2.6 2.3-5.6 4-8.8 4.8zm9.7-5.6V88h.9l-.9.9zm1.6-1.8c-.1-.1-.2-.1-.3-.1h-1.3v-7.4h6.1c-1.1 2.8-2.6 5.3-4.5 7.5zm4.6-8.5h-6.2v-8.7H73c-.1 3-.6 5.9-1.5 8.7h-.2zM54 18.5c.2-.2.3-.5.3-.8V1.8c0-.6-.5-1.1-1.1-1.1h-6.4c-.6 0-1.1.5-1.1 1.1v15.9c0 .3.1.6.3.8s.5.3.8.3h6.4c.3 0 .6-.1.8-.3z"/></svg>