<svg width="51" height="133" fill="none" xmlns="http://www.w3.org/2000/svg"><path d="M46.682 10.664v117.698a2.732 2.732 0 0 1-2.727 2.737H7.026a2.732 2.732 0 0 1-2.727-2.737V10.664h42.383ZM2.424 8.763v119.599c0 2.547 2.064 4.638 4.62 4.638h36.93c2.538 0 4.62-2.072 4.62-4.638V8.762H2.425ZM0 0h51v5.398H0V0Z" fill="#000"/><path d="m22.404 41.286-2.121-10.34 2.215-.077 1.099 6.254 1.174-6.159 1.666-.076 1.099 6.31 1.307-6.234 1.874-.076-2.234 10.436h-2.008l-1.098-6.368-1.117 6.368h-1.856v-.038ZM24.449 55.276v-10.34l2.045-.172v10.34l-2.045.172ZM23.18 58.83l2.026-.17v8.819h3.41l-.209 1.635H23.18V58.83ZM23.37 82.495a4.152 4.152 0 0 1-1.27-1.881l1.724-.799.17.285c.266.457.53.818.777 1.084.246.266.55.38.928.38.246 0 .454-.114.644-.342.19-.228.284-.494.284-.76 0-.267-.057-.495-.19-.704a1.816 1.816 0 0 0-.492-.513l-1.818-1.084c-.53-.304-.947-.665-1.269-1.121a2.582 2.582 0 0 1-.473-1.52c0-.609.132-1.141.416-1.616a2.936 2.936 0 0 1 1.156-1.103c.492-.266 1.022-.38 1.647-.38.72 0 1.326.171 1.818.532.493.361.871.875 1.117 1.578l-1.723.78c-.038-.077-.113-.248-.227-.495-.114-.266-.265-.456-.436-.57a1.099 1.099 0 0 0-.625-.171c-.303 0-.53.095-.7.285-.17.19-.247.437-.247.76 0 .228.057.418.19.608s.284.324.454.419l1.686.988c1.23.703 1.894 1.635 1.95 2.775a3.52 3.52 0 0 1-.435 1.749 2.972 2.972 0 0 1-1.193 1.178c-.512.286-1.06.419-1.686.419-.909-.057-1.61-.285-2.178-.76ZM22.953 95.592c-.474-1.007-.72-2.338-.72-3.935 0-1.71.246-3.041.758-3.972.511-.932 1.325-1.388 2.462-1.388 2.159 0 3.22 1.768 3.22 5.303 0 1.578-.247 2.909-.72 3.954-.493 1.045-1.326 1.578-2.538 1.578-1.155-.02-1.989-.533-2.462-1.54Zm3.484-1.102c.152-.647.228-1.616.228-2.928 0-1.045-.076-1.92-.228-2.604-.151-.684-.473-1.045-.984-1.045-.493 0-.815.342-.966 1.026-.152.684-.227 1.559-.227 2.604 0 1.312.075 2.3.227 2.947.151.646.473.969.966.969.492 0 .814-.323.984-.97ZM27.062 110.894l-3.03-6.52v6.348l-1.818.076v-10.34l2.121-.076 2.69 6.197v-6.026l1.723-.171v10.34l-1.686.172Z" fill="#000"/></svg>