<?xml version="1.0" standalone="no"?>
<!DOCTYPE svg PUBLIC "-//W3C//DTD SVG 20010904//EN"
 "http://www.w3.org/TR/2001/REC-SVG-20010904/DTD/svg10.dtd">
<svg version="1.0" xmlns="http://www.w3.org/2000/svg"
 width="700.000000pt" height="700.000000pt" viewBox="0 0 700.000000 700.000000"
 preserveAspectRatio="xMidYMid meet">
<metadata>
Created by potrace 1.14, written by Peter Selinger 2001-2017
</metadata>
<g transform="translate(0.000000,700.000000) scale(0.100000,-0.100000)"
fill="#000000" stroke="none">
<path d="M0 3500 l0 -3500 3500 0 3500 0 0 3500 0 3500 -3500 0 -3500 0 0
-3500z m3540 0 l0 -3060 -125 0 -125 0 0 3060 0 3060 125 0 125 0 0 -3060z
m2125 2001 c93 -25 182 -65 262 -118 89 -59 225 -195 287 -287 149 -221 257
-555 273 -837 l6 -116 -44 -6 c-66 -9 -678 -42 -683 -37 -2 3 -9 57 -16 120
-18 181 -74 414 -126 527 -95 200 -327 237 -474 76 -109 -119 -172 -328 -212
-703 -21 -198 -18 -891 5 -1100 55 -502 124 -730 256 -853 70 -64 133 -89 225
-90 172 -2 303 147 361 408 23 105 55 344 55 413 0 32 1 32 38 27 20 -3 152
-17 292 -30 140 -14 270 -27 288 -30 l32 -6 0 -67 c0 -273 -107 -640 -251
-862 -174 -269 -384 -416 -665 -465 -226 -39 -496 7 -693 118 -92 52 -232 183
-293 274 -253 378 -430 1184 -404 1833 18 448 113 866 265 1168 106 211 305
440 469 540 88 53 235 107 337 122 100 15 319 5 410 -19z m-2875 -66 c0 -25
-45 -456 -55 -532 l-6 -43 -360 0 -359 0 0 -1639 0 -1640 -42 -5 c-24 -4 -180
-17 -348 -31 -168 -14 -320 -27 -337 -29 l-33 -5 0 1675 0 1674 -395 0 -394 0
4 28 c2 15 12 140 20 277 9 138 18 260 21 273 l4 22 1140 0 1140 0 0 -25z"/>
</g>
</svg>
